<svg width="200" height="27" viewBox="0 0 200 27" fill="none" xmlns="http://www.w3.org/2000/svg">
<g clip-path="url(#clip0_10671_908)">
<path d="M13.3635 0C5.98351 0 0 5.98353 0 13.3635C0 20.7436 5.98351 26.7271 13.3635 26.7271C20.7435 26.7271 26.727 20.7436 26.727 13.3635C26.727 5.98353 20.7435 0 13.3635 0ZM25.1785 11.6563C25.1234 11.6163 19.6728 7.6974 16.1899 8.59777C15.3764 8.80824 14.8101 9.20581 14.5044 9.78211C14.1169 10.5154 14.2255 11.3807 14.329 11.8418C14.4877 11.2855 14.8101 10.5522 15.4582 10.0427C16.1131 9.52653 16.9566 9.35114 17.9639 9.51985C21.7959 10.163 25.2186 16.0212 25.3623 16.2701C25.4475 16.4171 25.3974 16.6059 25.2504 16.6894C25.2019 16.7178 25.1485 16.7312 25.0967 16.7312C24.9898 16.7312 24.8862 16.676 24.8294 16.5775C24.796 16.519 21.4083 10.7226 17.862 10.1262C17.0351 9.98758 16.3553 10.1212 15.8424 10.5221C15.1893 11.0333 14.9371 11.8685 14.8435 12.3312C15.2144 11.8885 15.8074 11.349 16.6058 11.1469C17.4143 10.9431 18.2562 11.1251 19.1065 11.6881C22.3455 13.8346 23.0888 20.5765 23.1189 20.8638C23.1372 21.0325 23.0136 21.1846 22.8449 21.2013C22.8332 21.2013 22.8232 21.2029 22.8132 21.2029C22.6578 21.2029 22.5242 21.086 22.5075 20.9273C22.5008 20.8605 21.7641 14.1871 18.7674 12.2009C18.0658 11.7365 17.3909 11.5828 16.7562 11.7432C15.9494 11.947 15.3814 12.6052 15.1108 12.9894C15.6303 12.7355 16.392 12.4832 17.2038 12.6252C18.0257 12.7672 18.7206 13.2767 19.2685 14.1386C21.3549 17.4177 19.2919 23.879 19.2034 24.1529C19.1616 24.2832 19.0397 24.3651 18.911 24.3651C18.8793 24.3651 18.8476 24.3601 18.8158 24.35C18.6538 24.2983 18.5653 24.1245 18.6187 23.9625C18.6388 23.8974 20.6817 17.5029 18.7507 14.4694C18.2997 13.7594 17.7434 13.3435 17.1003 13.2316C16.2801 13.0913 15.4933 13.4621 15.0891 13.701C15.667 13.6809 16.4655 13.7611 17.1504 14.2188C17.8436 14.6832 18.2713 15.4299 18.4216 16.4405C18.9946 20.2842 14.481 25.349 14.2889 25.5611C14.2288 25.6296 14.1436 25.663 14.0601 25.663C13.9866 25.663 13.9131 25.6363 13.8546 25.5845C13.7277 25.4709 13.7176 25.2771 13.8312 25.1502C13.8763 25.1001 18.3431 20.0871 17.8136 16.5307C17.6899 15.6988 17.3508 15.0941 16.808 14.73C16.1147 14.2656 15.2444 14.2856 14.7784 14.3407C15.3146 14.5579 16.0128 14.9538 16.4522 15.652C16.8965 16.357 16.9834 17.2139 16.7094 18.1978C15.6704 21.9413 9.48642 24.7326 9.22416 24.8495C9.18407 24.8679 9.14064 24.8762 9.09888 24.8762C8.98028 24.8762 8.86836 24.8077 8.81825 24.6942C8.74976 24.5388 8.81825 24.3567 8.9736 24.2882C9.0354 24.2598 15.1542 21.4986 16.1164 18.0341C16.3402 17.2256 16.2784 16.5357 15.9326 15.9828C15.4917 15.2812 14.6882 14.9421 14.2372 14.8018C14.6381 15.2177 15.1125 15.8642 15.2294 16.6794C15.348 17.5046 15.0791 18.3231 14.4293 19.1099C11.957 22.1066 5.17168 22.1417 4.88436 22.1417C4.71398 22.1417 4.577 22.0047 4.577 21.8344C4.577 21.664 4.71565 21.527 4.88436 21.527C4.95118 21.527 11.6663 21.4919 13.9548 18.719C14.4894 18.0725 14.7132 17.416 14.6214 16.7712C14.5044 15.9494 13.9064 15.3129 13.5539 15.0022C13.7511 15.5451 13.9214 16.3286 13.6976 17.122C13.4704 17.9238 12.8924 18.562 11.977 19.018C11.1435 19.4323 10.1513 19.5926 9.12394 19.5926C5.86324 19.5926 2.22502 17.9957 2.02624 17.9055C1.87089 17.837 1.80073 17.6549 1.87089 17.4996C1.93938 17.3442 2.12146 17.274 2.27681 17.3425C2.33861 17.3693 8.48583 20.0687 11.7048 18.4667C12.4581 18.0926 12.9292 17.5831 13.1063 16.955C13.3334 16.1532 13.0461 15.3313 12.849 14.9054C12.8089 15.4817 12.6469 16.2684 12.119 16.9015C11.5845 17.543 10.7977 17.8888 9.77708 17.9339C9.7136 17.9372 9.64846 17.9389 9.58498 17.9389C5.74631 17.9389 1.32633 13.0812 1.13757 12.8708C1.02398 12.7438 1.034 12.55 1.16096 12.4364C1.28791 12.3229 1.48168 12.3329 1.59527 12.4598C1.64037 12.5099 6.15557 17.4645 9.75035 17.3208C10.5889 17.2841 11.2253 17.0118 11.6446 16.5123C12.1758 15.8759 12.2493 15.0056 12.2443 14.5345C11.9737 15.044 11.5043 15.6955 10.766 16.0596C10.3951 16.2417 9.99758 16.3336 9.57329 16.3336C9.14899 16.3336 8.68628 16.2384 8.20687 16.0496C4.59371 14.6247 2.4639 8.1835 2.37536 7.90954C2.32358 7.74751 2.41044 7.57546 2.57248 7.522C2.73451 7.47022 2.90656 7.55875 2.96002 7.71911C2.98006 7.78426 5.08816 14.1587 8.43405 15.4767C9.21414 15.784 9.90737 15.7957 10.4937 15.5084C11.2387 15.1442 11.6597 14.3792 11.8468 13.9449C11.3907 14.3007 10.6992 14.7049 9.87564 14.7366C9.84056 14.7366 9.80715 14.7383 9.77207 14.7383C8.97694 14.7383 8.22691 14.3842 7.54203 13.6859C4.81922 10.913 5.49407 4.16274 5.52414 3.8771C5.54252 3.70838 5.69119 3.5831 5.86157 3.60314C6.03028 3.62152 6.1539 3.77186 6.13552 3.94057C6.12884 4.00739 5.46067 10.6875 7.97969 13.255C8.56768 13.853 9.19577 14.1436 9.84724 14.1219C10.6774 14.0919 11.374 13.5623 11.7198 13.2433C11.4358 13.3151 11.0934 13.3736 10.7225 13.3736C10.3517 13.3736 9.97419 13.3184 9.59667 13.1664C8.82326 12.8557 8.24863 12.2143 7.89115 11.2571C6.53142 7.61722 9.89401 1.7239 10.0377 1.475C10.1229 1.328 10.3099 1.27789 10.4569 1.36308C10.6039 1.44827 10.6541 1.63536 10.5689 1.78236C10.5355 1.84083 7.20794 7.67234 8.46579 11.0416C8.75978 11.8284 9.21414 12.3496 9.82051 12.5935C10.5889 12.9025 11.4392 12.7037 11.8868 12.5534C11.3172 12.4531 10.5538 12.2093 9.9792 11.6179C9.39789 11.0199 9.13563 10.1997 9.19744 9.18075C9.43631 5.30198 14.9053 1.28624 15.1375 1.11753C15.2745 1.0173 15.4666 1.04737 15.5668 1.18601C15.667 1.32299 15.637 1.51509 15.4983 1.61532C15.4432 1.65541 10.0327 5.62939 9.81216 9.21917C9.76038 10.0561 9.96417 10.7192 10.4185 11.187C10.9965 11.7833 11.8534 11.9453 12.3228 11.9904C11.8434 11.668 11.2454 11.1335 10.9614 10.3618C10.6741 9.57999 10.766 8.72305 11.2387 7.81767C13.0344 4.37155 19.6627 2.92662 19.945 2.86648C20.1104 2.8314 20.2741 2.93831 20.3092 3.10368C20.3443 3.27073 20.239 3.43276 20.072 3.46951C20.0068 3.48287 13.4454 4.91444 11.7849 8.10165C11.3957 8.84666 11.3139 9.53656 11.5394 10.1496C11.8267 10.9314 12.5433 11.4275 12.9526 11.6563C12.6452 11.1669 12.3161 10.4353 12.3696 9.61173C12.4247 8.77985 12.8574 8.03483 13.6575 7.40006C16.6994 4.98293 23.3427 6.35937 23.6233 6.41951C23.7887 6.45459 23.8956 6.61829 23.8605 6.78534C23.8255 6.95238 23.6618 7.05762 23.4964 7.02254C23.4296 7.00751 16.8547 5.6461 14.04 7.88449C13.3819 8.40734 13.0261 9.00368 12.9827 9.65516C12.9275 10.487 13.3785 11.2304 13.6608 11.6062C13.5807 11.0333 13.5757 10.2315 13.9599 9.50148C14.3491 8.76314 15.0473 8.26034 16.0362 8.00476C19.7964 7.03089 25.3071 10.9932 25.5393 11.1619C25.6763 11.2621 25.7081 11.4542 25.6078 11.5912C25.5076 11.7282 25.3155 11.7582 25.1785 11.6597V11.6563Z" fill="url(#paint0_linear_10671_908)"/>
<path d="M47.6927 4.95954V21.9513C47.6927 22.0716 47.5942 22.1684 47.4739 22.1684H43.4749C43.3529 22.1684 43.2561 22.0699 43.2561 21.9496V15.5535C43.2561 15.4332 43.1575 15.3347 43.0372 15.3347H38.0643C37.9441 15.3347 37.8455 15.4315 37.8455 15.5518V21.9513C37.8455 22.0716 37.7486 22.1684 37.6283 22.1684H33.6276C33.5074 22.1684 33.4088 22.0699 33.4088 21.9496V4.95787C33.4088 4.8376 33.5057 4.73904 33.6276 4.73904H37.63C37.7503 4.73904 37.8472 4.83593 37.8472 4.9562V11.1285C37.8472 11.2488 37.9441 11.3456 38.0643 11.3456H43.0372C43.1575 11.3456 43.2561 11.2471 43.2561 11.1268V4.95954C43.2561 4.83927 43.3546 4.74071 43.4749 4.74071H47.4739C47.5942 4.74071 47.6927 4.83927 47.6927 4.95954Z" fill="#242424"/>
<path d="M60.1241 20.8906C60.0255 20.9741 59.932 21.0493 59.8384 21.1194L59.7599 21.1779C59.6514 21.2581 59.5394 21.3349 59.4258 21.4084L59.3941 21.4284C59.2638 21.512 59.1318 21.5905 58.9999 21.664L58.9615 21.6857C58.9297 21.7024 58.898 21.7208 58.8646 21.7375L58.8429 21.7492C58.7811 21.7809 58.7259 21.8093 58.6725 21.836L58.6407 21.8511C58.5155 21.9112 58.3985 21.9647 58.2816 22.0131L58.2582 22.0231C58.178 22.0549 58.1095 22.0833 58.0377 22.1083L57.9525 22.1401C57.8657 22.1718 57.7788 22.2002 57.6919 22.2269L57.6769 22.2319C57.5833 22.2603 57.4831 22.2887 57.3712 22.3188L57.291 22.3388C57.0889 22.389 56.8884 22.429 56.688 22.4608L56.6128 22.4725C56.4007 22.5025 56.1902 22.5243 55.9814 22.536L55.9046 22.541C55.7793 22.546 55.6774 22.5493 55.5805 22.5493C55.4836 22.5493 55.3767 22.5476 55.2564 22.541C55.233 22.541 55.208 22.5393 55.1846 22.5376H55.1612C55.081 22.5309 55.0025 22.5259 54.924 22.5176H54.899C54.8756 22.5126 54.8522 22.5109 54.8305 22.5092C54.7152 22.4975 54.615 22.4842 54.5231 22.4708H54.5198C54.5198 22.4708 54.5164 22.4708 54.5148 22.4708L54.4596 22.4625C54.3744 22.4491 54.2892 22.4341 54.204 22.4157L54.1138 22.3973C54.0387 22.3806 53.9635 22.3639 53.8883 22.3455L53.8649 22.3388C53.8432 22.3338 53.8215 22.3288 53.7981 22.3221C53.6862 22.2937 53.5893 22.2653 53.4991 22.2386C53.3989 22.2085 53.302 22.1751 53.2051 22.1401C53.1817 22.1317 53.16 22.1234 53.1366 22.115L53.1199 22.1083C53.0498 22.0816 52.9779 22.0549 52.9078 22.0265L52.8877 22.0181C52.866 22.0098 52.8443 22.0014 52.8226 21.9914C52.7291 21.9513 52.6355 21.9112 52.5436 21.8678L52.5336 21.8628C52.4501 21.8243 52.3599 21.7776 52.2714 21.7308C52.2513 21.7191 52.2296 21.7074 52.2079 21.6974L52.1912 21.6874C52.126 21.6523 52.0609 21.6139 51.9957 21.5771L51.9189 21.5303C51.8337 21.4786 51.7485 21.4251 51.665 21.37C50.8298 20.8137 50.1115 20.0721 49.5886 19.2218C49.5452 19.1516 49.5018 19.0798 49.4617 19.0063L49.4433 18.9729C49.4049 18.9027 49.3665 18.8309 49.3297 18.7591L49.3097 18.719C49.298 18.6973 49.2879 18.6756 49.2763 18.6538C49.1443 18.3849 49.0257 18.0976 48.9271 17.8019C48.872 17.6365 48.8302 17.4979 48.7952 17.3643C48.7668 17.2557 48.74 17.1438 48.7167 17.0302C48.6465 16.6911 48.6014 16.342 48.583 15.9928C48.5763 15.8759 48.573 15.7556 48.573 15.637C48.573 15.5184 48.5763 15.3982 48.583 15.2812C48.6148 14.6698 48.73 14.0601 48.9255 13.4738C48.9906 13.28 49.0541 13.108 49.1242 12.9476C49.1643 12.8541 49.2061 12.7639 49.2512 12.672C49.2612 12.6503 49.2712 12.6286 49.2829 12.6085L49.3097 12.5567C49.3197 12.535 49.3297 12.5133 49.3414 12.4933C49.3531 12.4715 49.3648 12.4498 49.3765 12.4281L49.4366 12.3162C49.4851 12.2293 49.5352 12.1425 49.5886 12.0573C50.1115 11.2087 50.8281 10.4653 51.665 9.90908C51.7485 9.85395 51.8337 9.8005 51.9189 9.74871L51.9957 9.70194C52.0609 9.66352 52.1244 9.62677 52.1912 9.59169L52.2079 9.58167C52.2296 9.56998 52.2496 9.55828 52.2714 9.54826C52.3616 9.50149 52.4501 9.45472 52.542 9.41128C52.6355 9.36618 52.7274 9.32609 52.8209 9.286C52.8426 9.27765 52.8644 9.26763 52.8861 9.25927L52.9061 9.25092C52.9763 9.22253 53.0464 9.19413 53.1183 9.16907L53.1383 9.16239C53.16 9.15404 53.1817 9.14568 53.2035 9.139C53.3003 9.10392 53.3972 9.07219 53.4958 9.04212C53.596 9.01205 53.6946 8.98365 53.7965 8.9586C53.8182 8.95358 53.8399 8.94857 53.8616 8.94189L53.885 8.93688C53.9602 8.9185 54.0353 8.9018 54.1105 8.8851L54.164 8.8734C54.2542 8.85503 54.4045 8.82663 54.4964 8.81327H54.5131C54.5131 8.81327 54.5164 8.80993 54.5181 8.80993H54.5214C54.6133 8.79656 54.7135 8.7832 54.8288 8.77151C54.8522 8.76983 54.8756 8.76649 54.899 8.76482H54.924C55.0025 8.7548 55.081 8.74979 55.1612 8.74478H55.1796C55.2046 8.74144 55.2314 8.73977 55.2564 8.73977C55.3767 8.73476 55.4836 8.73141 55.5805 8.73141C55.6774 8.73141 55.7793 8.73476 55.8995 8.73977L55.9764 8.74311C56.1885 8.7548 56.399 8.77652 56.6045 8.80658L56.688 8.81995C56.8884 8.85169 57.0889 8.89178 57.2843 8.94022L57.3712 8.96194C57.4831 8.99033 57.5817 9.01873 57.6719 9.04713L57.6869 9.05214C57.7788 9.08054 57.864 9.11061 57.9508 9.14067C57.9776 9.14903 58.0026 9.15905 58.0294 9.16907C58.1095 9.19914 58.178 9.22587 58.2482 9.25426L58.2833 9.26763C58.3969 9.3144 58.5171 9.36785 58.6374 9.42632L58.6675 9.44135C58.7276 9.47142 58.7811 9.49815 58.8362 9.52655L58.8545 9.53657L58.8662 9.54158C58.8997 9.55828 58.9314 9.57666 58.9631 9.59336C59.0817 9.66018 59.2738 9.77377 59.3891 9.84727L59.4041 9.85562C59.5261 9.93413 59.6413 10.0143 59.7516 10.0962L59.77 10.1095C59.7933 10.1262 59.8151 10.1429 59.8384 10.1596C59.9337 10.2315 60.0272 10.3066 60.1258 10.3902L60.1809 10.4369C60.2544 10.4987 60.3262 10.5639 60.3964 10.6307L60.4147 10.6474C60.4715 10.7009 60.5267 10.7543 60.5818 10.8094L60.6235 10.8529C60.7121 10.9431 60.7906 11.0283 60.8641 11.1118L60.8758 11.1235L60.9125 11.1669C60.9593 11.222 61.0061 11.2772 61.0512 11.334L61.0946 11.3891C61.1481 11.4559 61.2015 11.5244 61.2516 11.5946L61.2583 11.6046C61.3001 11.6597 61.3402 11.7165 61.3786 11.775L61.4538 11.8886C61.4872 11.9387 61.5189 11.9904 61.5523 12.0422L61.6809 12.256H61.6793C61.9399 12.7138 62.147 13.1948 62.294 13.691C62.4827 14.3257 62.5796 14.9822 62.5796 15.642C62.5796 16.0229 62.5345 16.4706 62.466 16.8681C62.4493 16.97 62.3608 17.0435 62.2572 17.0435H53.0164C52.8527 17.0435 52.7524 17.2223 52.836 17.3643C53.4039 18.3264 54.4212 18.9261 55.5437 18.9261C56.4992 18.9261 57.3896 18.5052 58.0227 17.695C58.0711 17.6332 58.1496 17.6015 58.2265 17.6148L61.7645 18.2513C61.9014 18.2763 61.9783 18.4233 61.9165 18.5486C61.8363 18.714 61.7361 18.9194 61.6776 19.023H61.6809L61.6225 19.1216C61.569 19.2134 61.5122 19.302 61.4471 19.4039C61.3652 19.5292 61.2884 19.6377 61.2132 19.738L61.1681 19.7981H61.1648C61.1397 19.8298 61.1147 19.8632 61.0896 19.895L61.0512 19.9434C61.0011 20.0036 60.9543 20.0604 60.9075 20.1172L60.8658 20.1656C60.7872 20.2541 60.7104 20.3376 60.6252 20.4262L60.5784 20.4746C60.5233 20.5298 60.4665 20.5849 60.4097 20.6383L60.393 20.655C60.3312 20.7135 60.2677 20.7703 60.2026 20.8254L60.1324 20.8856L60.1207 20.8939L60.1241 20.8906ZM58.4536 13.8881C58.2899 12.9159 57.1641 12.1575 55.7342 12.1575C54.4346 12.1575 53.2001 12.9109 53.0164 13.8847C52.9913 14.015 53.0915 14.1353 53.2235 14.1353H58.2448C58.3751 14.1353 58.4754 14.0167 58.4536 13.8881Z" fill="#242424"/>
<path d="M78.185 9.14399V21.9162C78.185 22.0331 78.0914 22.1267 77.9745 22.1267H74.2878C74.1709 22.1267 74.0773 22.0331 74.0773 21.9162V21.7224C74.0773 21.6406 73.9905 21.5921 73.9187 21.6322C72.8613 22.2302 71.6686 22.5443 70.4425 22.5443C66.5804 22.5443 63.4366 19.4456 63.4366 15.6353C63.4366 11.8251 66.5787 8.72638 70.4425 8.72638C71.6669 8.72638 72.8613 9.04042 73.9187 9.63844C73.9888 9.67853 74.0773 9.62842 74.0773 9.54824V9.14566C74.0773 9.02873 74.1709 8.93518 74.2878 8.93518H77.9745C78.0914 8.93518 78.185 9.0304 78.185 9.14566V9.14399ZM74.0773 15.6337C74.0773 13.8864 72.8479 12.4648 71.0756 12.4648C69.3032 12.4648 67.8633 13.8864 67.8633 15.6337C67.8633 17.3809 69.3049 18.8025 71.0756 18.8025C72.8462 18.8025 74.0773 17.3809 74.0773 15.6337Z" fill="#242424"/>
<path d="M83.3617 4.9963V21.9229C83.3617 22.0398 83.2681 22.1334 83.1512 22.1334H79.2541C79.1371 22.1334 79.0436 22.0382 79.0436 21.9229V4.9963C79.0436 4.87937 79.1371 4.78583 79.2541 4.78583H83.1512C83.2681 4.78583 83.3617 4.87937 83.3617 4.9963Z" fill="#242424"/>
<path d="M92.2016 18.9461L91.7289 22.0665C91.7138 22.1651 91.632 22.2403 91.5334 22.2453C91.0808 22.272 89.873 22.3405 89.5039 22.3405C89.4738 22.3405 89.4504 22.3405 89.432 22.3405C87.192 22.2236 86.0076 21.0743 86.0076 19.0163V12.682C86.0076 12.5651 85.9124 12.4715 85.7972 12.4715H84.4274C84.3105 12.4715 84.2169 12.378 84.2169 12.261V9.13898C84.2169 9.02372 84.3105 8.9285 84.4274 8.9285H85.7972C85.9141 8.9285 86.0076 8.83496 86.0076 8.71803V5.09985C86.0076 4.98292 86.1012 4.88937 86.2181 4.88937H89.9048C90.0217 4.88937 90.1152 4.98459 90.1152 5.09985V8.71803C90.1152 8.83496 90.2088 8.9285 90.3257 8.9285H91.6955C91.8107 8.9285 91.9059 9.02372 91.9059 9.13898V12.261C91.9059 12.378 91.8107 12.4715 91.6955 12.4715H90.3257C90.2088 12.4715 90.1152 12.5651 90.1152 12.682C90.1152 13.7778 90.1152 17.0134 90.1136 17.0469L90.1102 17.1387C90.0969 17.5396 90.0785 18.0892 90.4009 18.4166C90.5896 18.6087 90.8836 18.7056 91.2745 18.7056H91.9911C92.1198 18.7056 92.2183 18.8209 92.1999 18.9478L92.2016 18.9461Z" fill="#242424"/>
<path d="M104.785 14.4978V21.9229C104.785 22.0398 104.691 22.1334 104.575 22.1334H100.639C100.522 22.1334 100.429 22.0398 100.429 21.9229V14.7066C100.429 14.2171 100.4 13.6559 100.196 13.2032C100.103 13.0111 99.9775 12.8524 99.8255 12.7338C99.5783 12.54 99.2609 12.4465 98.8516 12.4465C98.0916 12.4465 97.5036 12.7071 97.3182 13.128C97.1044 13.584 97.1043 14.2071 97.1043 14.7083V21.9246C97.1043 22.0415 97.0108 22.135 96.8939 22.135H92.96C92.8431 22.135 92.7495 22.0398 92.7495 21.9246V4.9963C92.7495 4.87937 92.8431 4.78583 92.96 4.78583H96.6466C96.7636 4.78583 96.8571 4.87937 96.8571 4.9963V9.5065C96.8571 9.59002 96.9523 9.6418 97.0208 9.59336C99.9925 7.54874 102.886 9.81887 102.916 9.84226C103.021 9.92411 103.121 10.0126 103.213 10.1028C104.558 11.4559 104.785 12.5517 104.785 14.4961V14.4978Z" fill="#242424"/>
<path d="M121.222 4.94452V15.2161C121.222 18.1878 120.546 19.4757 119.455 20.5915C118.214 21.8577 116.769 22.5009 114.742 22.5009C113.745 22.5009 111.467 22.3154 109.888 20.6099C108.38 18.9528 108.126 17.6081 108.126 15.2177V4.94452C108.126 4.82758 108.219 4.73404 108.336 4.73404H112.352C112.469 4.73404 112.563 4.82758 112.563 4.94452V15.2161C112.563 15.8408 112.596 16.5574 112.84 17.1454C113.147 17.8303 113.897 18.1661 114.697 18.1661C115.498 18.1661 116.278 17.862 116.532 17.239C116.785 16.646 116.785 15.8525 116.785 15.2161V4.94452C116.785 4.82758 116.881 4.73404 116.996 4.73404H121.012C121.129 4.73404 121.222 4.82758 121.222 4.94452Z" fill="#242424"/>
<path d="M134.101 14.4978V21.9229C134.101 22.0398 134.006 22.1334 133.891 22.1334H129.957C129.84 22.1334 129.746 22.0398 129.746 21.9229V14.7066C129.746 14.2171 129.718 13.6559 129.514 13.2032C129.421 13.0111 129.295 12.8524 129.143 12.7338C128.898 12.54 128.579 12.4465 128.17 12.4465C127.409 12.4465 126.821 12.7071 126.636 13.128C126.422 13.584 126.422 14.2071 126.422 14.7083V21.9246C126.422 22.0415 126.327 22.135 126.212 22.135H122.278C122.161 22.135 122.067 22.0415 122.067 21.9246V9.15069C122.067 9.03376 122.163 8.94021 122.278 8.94021H125.965C126.081 8.94021 126.175 9.03376 126.175 9.15069V9.50649C126.175 9.59001 126.27 9.6418 126.339 9.59335C129.31 7.54873 132.204 9.81886 132.234 9.84225C132.339 9.9241 132.439 10.0126 132.531 10.1028C133.876 11.4559 134.103 12.5517 134.103 14.4961L134.101 14.4978Z" fill="#242424"/>
<path d="M139.049 4.9963V7.68739C139.049 7.80432 138.955 7.89786 138.839 7.89786H135.152C135.035 7.89786 134.941 7.80432 134.941 7.68739V4.9963C134.941 4.87937 135.037 4.78583 135.152 4.78583H138.839C138.955 4.78583 139.049 4.87937 139.049 4.9963ZM139.049 9.15069V21.9229C139.049 22.0398 138.955 22.1334 138.839 22.1334H135.152C135.035 22.1334 134.941 22.0398 134.941 21.9229V9.15069C134.941 9.03376 135.037 8.94022 135.152 8.94022H138.839C138.955 8.94022 139.049 9.03376 139.049 9.15069Z" fill="#242424"/>
<path d="M153.266 9.22252L148.708 21.9947C148.677 22.0782 148.599 22.135 148.509 22.135H144.653C144.565 22.135 144.485 22.0782 144.455 21.9947L139.896 9.22252C139.848 9.08554 139.949 8.94022 140.095 8.94022H143.768C143.857 8.94022 143.937 8.99534 143.967 9.08053L146.581 16.4054L149.195 9.08053C149.225 8.99701 149.304 8.94022 149.394 8.94022H153.067C153.213 8.94022 153.315 9.08387 153.266 9.22252Z" fill="#242424"/>
<path d="M163.828 20.8906C163.73 20.9741 163.636 21.0493 163.543 21.1194L163.464 21.1779C163.356 21.2581 163.244 21.3349 163.13 21.4084L163.098 21.4284C162.968 21.512 162.836 21.5905 162.704 21.664L162.666 21.6857C162.634 21.7024 162.602 21.7208 162.569 21.7375L162.547 21.7492C162.485 21.7809 162.43 21.8093 162.377 21.836L162.345 21.8511C162.22 21.9112 162.103 21.9647 161.986 22.0131L161.962 22.0231C161.882 22.0549 161.814 22.0833 161.742 22.1083L161.657 22.1401C161.57 22.1718 161.483 22.2002 161.396 22.2269L161.381 22.2319C161.286 22.2603 161.187 22.2887 161.075 22.3188L160.995 22.3388C160.793 22.389 160.593 22.429 160.392 22.4608L160.315 22.4725C160.103 22.5025 159.893 22.5243 159.684 22.536L159.607 22.541C159.482 22.546 159.38 22.5493 159.283 22.5493C159.186 22.5493 159.079 22.5476 158.959 22.541C158.936 22.541 158.911 22.5393 158.887 22.5376H158.864C158.784 22.5309 158.705 22.5259 158.627 22.5176H158.602C158.578 22.5126 158.555 22.5109 158.533 22.5092C158.418 22.4975 158.318 22.4842 158.226 22.4708H158.222C158.222 22.4708 158.219 22.4708 158.217 22.4708L158.162 22.4625C158.077 22.4491 157.992 22.4341 157.907 22.4157L157.815 22.3973C157.74 22.3806 157.664 22.3639 157.589 22.3455L157.566 22.3388C157.544 22.3338 157.522 22.3288 157.501 22.3221C157.389 22.2937 157.292 22.2653 157.202 22.2386C157.101 22.2085 157.005 22.1751 156.908 22.1401C156.884 22.1317 156.863 22.1234 156.839 22.115L156.822 22.1083C156.752 22.0816 156.68 22.0549 156.61 22.0265L156.59 22.0181C156.569 22.0098 156.547 22.0014 156.525 21.9914C156.432 21.9513 156.338 21.9112 156.246 21.8678L156.236 21.8628C156.153 21.8243 156.062 21.7776 155.974 21.7308C155.952 21.7191 155.932 21.7074 155.91 21.6974L155.894 21.6874C155.829 21.6523 155.763 21.6139 155.698 21.5771L155.621 21.5303C155.536 21.4786 155.451 21.4251 155.368 21.37C154.532 20.8137 153.814 20.0721 153.293 19.2218C153.249 19.1516 153.206 19.0798 153.166 19.0063L153.148 18.9729C153.109 18.9027 153.071 18.8309 153.034 18.7591L153.014 18.719C153.002 18.6973 152.992 18.6756 152.98 18.6538C152.849 18.3849 152.73 18.0976 152.631 17.8019C152.576 17.6365 152.534 17.4979 152.499 17.3643C152.471 17.2557 152.444 17.1438 152.421 17.0302C152.351 16.6911 152.306 16.342 152.287 15.9928C152.281 15.8759 152.277 15.7556 152.277 15.637C152.277 15.5184 152.281 15.3982 152.287 15.2812C152.319 14.6698 152.434 14.0601 152.63 13.4738C152.695 13.28 152.76 13.108 152.828 12.9476C152.869 12.8541 152.91 12.7639 152.955 12.672C152.965 12.6503 152.975 12.6286 152.987 12.6085L153.014 12.5567C153.024 12.535 153.034 12.5133 153.046 12.4933C153.057 12.4715 153.069 12.4498 153.081 12.4281L153.141 12.3162C153.189 12.2293 153.239 12.1425 153.293 12.0573C153.816 11.2087 154.532 10.4653 155.368 9.90908C155.451 9.85395 155.536 9.8005 155.621 9.74871L155.698 9.70194C155.763 9.66352 155.827 9.62677 155.894 9.59169L155.91 9.58167C155.93 9.56998 155.952 9.55828 155.974 9.54826C156.062 9.50149 156.153 9.45472 156.245 9.41128C156.338 9.36618 156.43 9.32609 156.523 9.286C156.545 9.27765 156.567 9.26763 156.589 9.25927L156.609 9.25092C156.679 9.22253 156.749 9.19413 156.821 9.16907L156.841 9.16239C156.863 9.15404 156.884 9.14568 156.906 9.139C157.003 9.10392 157.1 9.07219 157.198 9.04212C157.299 9.01205 157.397 8.98365 157.499 8.9586C157.521 8.95358 157.542 8.94857 157.564 8.94189L157.588 8.93688C157.663 8.9185 157.738 8.9018 157.813 8.8851L157.867 8.8734C157.957 8.85503 158.107 8.82663 158.199 8.81327H158.216C158.216 8.81327 158.219 8.80993 158.221 8.80993H158.224C158.316 8.79656 158.418 8.7832 158.531 8.77151C158.555 8.76983 158.578 8.76649 158.602 8.76482H158.627C158.705 8.7548 158.784 8.74979 158.864 8.74478H158.882C158.907 8.74144 158.934 8.73977 158.959 8.73977C159.079 8.73476 159.186 8.73141 159.283 8.73141C159.38 8.73141 159.482 8.73476 159.604 8.73977L159.681 8.74311C159.893 8.7548 160.103 8.77652 160.309 8.80658L160.392 8.81995C160.593 8.85169 160.793 8.89178 160.989 8.94022L161.075 8.96194C161.187 8.99033 161.286 9.01873 161.376 9.04713L161.391 9.05214C161.483 9.08054 161.57 9.11061 161.655 9.14067C161.682 9.14903 161.707 9.15905 161.734 9.16907C161.814 9.19914 161.882 9.22587 161.952 9.25426L161.987 9.26763C162.101 9.3144 162.221 9.36785 162.342 9.42632L162.373 9.44135C162.433 9.47142 162.487 9.49815 162.54 9.52655L162.559 9.53657L162.57 9.54158C162.604 9.55828 162.636 9.57666 162.667 9.59336C162.786 9.66018 162.978 9.77377 163.093 9.84727L163.108 9.85562C163.23 9.93413 163.346 10.0143 163.456 10.0962L163.474 10.1095C163.498 10.1262 163.519 10.1429 163.543 10.1596C163.638 10.2315 163.731 10.3066 163.83 10.3902L163.885 10.4369C163.959 10.4987 164.03 10.5639 164.101 10.6307L164.119 10.6474C164.176 10.7009 164.231 10.7543 164.286 10.8094L164.328 10.8529C164.416 10.9431 164.495 11.0283 164.568 11.1118L164.58 11.1235L164.617 11.1669C164.664 11.222 164.71 11.2772 164.755 11.334L164.799 11.3891C164.852 11.4559 164.906 11.5244 164.956 11.5946L164.963 11.6046C165.004 11.6597 165.046 11.7165 165.083 11.775L165.158 11.8886C165.191 11.9387 165.223 11.9904 165.255 12.0422L165.385 12.256H165.383C165.644 12.7138 165.851 13.1948 165.998 13.691C166.187 14.3257 166.284 14.9822 166.284 15.642C166.284 16.0229 166.239 16.4706 166.17 16.8681C166.154 16.97 166.065 17.0435 165.961 17.0435H156.721C156.557 17.0435 156.457 17.2223 156.54 17.3643C157.108 18.3264 158.125 18.9261 159.248 18.9261C160.203 18.9261 161.094 18.5052 161.727 17.695C161.775 17.6332 161.854 17.6015 161.931 17.6148L165.469 18.2513C165.606 18.2763 165.682 18.4233 165.622 18.5486C165.542 18.714 165.442 18.9194 165.383 19.023H165.387L165.328 19.1216C165.273 19.2134 165.218 19.302 165.153 19.4039C165.071 19.5292 164.994 19.6377 164.921 19.738L164.876 19.7981H164.872C164.847 19.8298 164.822 19.8632 164.797 19.895L164.759 19.9434C164.71 20.0036 164.662 20.0604 164.615 20.1172L164.573 20.1656C164.495 20.2541 164.418 20.3376 164.333 20.4262L164.284 20.4746C164.229 20.5298 164.172 20.5849 164.116 20.6383L164.099 20.655C164.037 20.7135 163.974 20.7703 163.908 20.8254L163.838 20.8856L163.827 20.8939L163.828 20.8906ZM162.158 13.8881C161.994 12.9159 160.87 12.1575 159.438 12.1575C158.139 12.1575 156.904 12.9109 156.721 13.8847C156.696 14.015 156.797 14.1353 156.928 14.1353H161.949C162.079 14.1353 162.18 14.0167 162.158 13.8881Z" fill="#242424"/>
<path d="M174.381 9.16071L174.255 12.246C174.25 12.3663 174.147 12.4582 174.026 12.4481C173.666 12.4147 172.944 12.3663 172.518 12.4699C172.044 12.5851 171.77 12.9493 171.691 13.1263C171.477 13.5824 171.477 13.9866 171.477 14.4978V21.9229C171.477 22.0398 171.384 22.1334 171.267 22.1334H167.333C167.216 22.1334 167.122 22.0398 167.122 21.9229V9.15069C167.122 9.03376 167.218 8.94022 167.333 8.94022H171.02C171.137 8.94022 171.23 9.03376 171.23 9.15069V9.51986C171.23 9.60171 171.32 9.65182 171.39 9.60839C172.264 9.06383 173.298 8.95191 174.168 8.94189C174.29 8.94022 174.386 9.04044 174.382 9.16071H174.381Z" fill="#242424"/>
<path d="M185.484 18.1995C185.45 18.6605 185.332 19.1516 185.13 19.6611C184.341 21.3416 182.517 22.3422 180.249 22.3422C179.936 22.3422 179.614 22.3221 179.29 22.2854C178.269 22.1651 177.376 21.8945 176.636 21.4786C175.874 20.9624 175.294 20.2424 174.902 19.3354C174.848 19.2134 174.92 19.0714 175.05 19.043L178.665 18.2663C178.749 18.2479 178.835 18.283 178.884 18.3548C179.138 18.7323 179.567 18.9178 179.801 18.9445C180.354 19.0113 180.641 18.8626 180.783 18.7257C180.929 18.5887 180.994 18.4016 180.969 18.1978C180.912 17.7401 180.636 17.528 179.238 16.8615L179.22 16.8531C178.941 16.7211 178.595 16.5558 178.209 16.3637C177.942 16.2484 177.683 16.1231 177.439 15.9928L177.419 15.9811C177.384 15.9611 177.35 15.941 177.314 15.9193C176.059 15.201 175.328 14.324 175.139 13.3168C174.87 11.8769 175.795 10.6541 175.984 10.4252C176.263 10.1079 176.59 9.83223 176.955 9.59837C178.05 8.89845 179.465 8.60946 180.939 8.78152C181.821 8.88509 182.622 9.12229 183.317 9.48812C183.648 9.66184 183.955 9.86731 184.231 10.0995C184.42 10.2682 185.011 10.8529 185.193 11.7466C185.217 11.8601 185.141 11.9704 185.028 11.9938L181.471 12.7121C181.371 12.7321 181.274 12.6753 181.236 12.5801C181.136 12.3329 180.917 12.084 180.447 12.0289C180.135 11.9921 179.854 12.0857 179.674 12.2844C179.537 12.4348 179.48 12.6235 179.525 12.7772C179.594 13.0128 179.838 13.3903 181.164 13.9298C181.428 14.0334 181.669 14.1269 181.912 14.2255C182.221 14.3357 182.52 14.4543 182.801 14.578C183.646 14.9738 185.599 16.1164 185.484 18.1995Z" fill="#242424"/>
<path d="M197.543 20.8906C197.444 20.9741 197.351 21.0493 197.257 21.1194L197.179 21.1779C197.07 21.2581 196.958 21.3349 196.845 21.4084L196.813 21.4284C196.682 21.512 196.551 21.5905 196.419 21.664L196.38 21.6857C196.348 21.7024 196.317 21.7208 196.283 21.7375L196.262 21.7492C196.2 21.7809 196.145 21.8093 196.091 21.836L196.059 21.8511C195.934 21.9112 195.817 21.9647 195.7 22.0131L195.677 22.0231C195.597 22.0549 195.528 22.0833 195.456 22.1083L195.371 22.1401C195.284 22.1718 195.197 22.2002 195.111 22.2269L195.096 22.2319C195 22.2603 194.902 22.2887 194.79 22.3188L194.71 22.3388C194.508 22.389 194.307 22.429 194.107 22.4608L194.03 22.4725C193.818 22.5025 193.607 22.5243 193.398 22.536L193.322 22.541C193.196 22.546 193.094 22.5493 192.998 22.5493C192.901 22.5493 192.794 22.5476 192.673 22.541C192.65 22.541 192.625 22.5393 192.602 22.5376H192.578C192.498 22.5309 192.42 22.5259 192.341 22.5176H192.316C192.293 22.5126 192.269 22.5109 192.247 22.5092C192.132 22.4975 192.032 22.4842 191.94 22.4708H191.937C191.937 22.4708 191.933 22.4708 191.932 22.4708L191.877 22.4625C191.791 22.4491 191.706 22.4341 191.621 22.4157L191.529 22.3973C191.454 22.3806 191.379 22.3639 191.304 22.3455L191.28 22.3388C191.259 22.3338 191.237 22.3288 191.215 22.3221C191.103 22.2937 191.006 22.2653 190.916 22.2386C190.816 22.2085 190.719 22.1751 190.622 22.1401C190.599 22.1317 190.577 22.1234 190.554 22.115L190.537 22.1083C190.467 22.0816 190.395 22.0549 190.325 22.0265L190.305 22.0181C190.283 22.0098 190.261 22.0014 190.24 21.9914C190.146 21.9513 190.053 21.9112 189.961 21.8678L189.951 21.8628C189.867 21.8243 189.777 21.7776 189.688 21.7308C189.667 21.7191 189.647 21.7074 189.625 21.6974L189.608 21.6874C189.543 21.6523 189.478 21.6139 189.413 21.5771L189.336 21.5303C189.251 21.4786 189.166 21.4251 189.082 21.37C188.247 20.8137 187.528 20.0721 187.007 19.2218C186.964 19.1516 186.92 19.0798 186.88 19.0063L186.862 18.9729C186.824 18.9027 186.785 18.8309 186.748 18.7591L186.728 18.719C186.717 18.6973 186.707 18.6756 186.695 18.6538C186.563 18.3849 186.444 18.0976 186.346 17.8019C186.291 17.6365 186.249 17.4979 186.214 17.3643C186.185 17.2557 186.159 17.1438 186.135 17.0302C186.065 16.6911 186.02 16.342 186.002 15.9928C185.995 15.8759 185.992 15.7556 185.992 15.637C185.992 15.5184 185.995 15.3982 186.002 15.2812C186.033 14.6698 186.149 14.0601 186.344 13.4738C186.409 13.28 186.474 13.108 186.543 12.9476C186.583 12.8541 186.625 12.7639 186.67 12.672C186.68 12.6503 186.69 12.6286 186.702 12.6085L186.728 12.5567C186.738 12.535 186.748 12.5133 186.76 12.4933C186.772 12.4715 186.783 12.4498 186.795 12.4281L186.855 12.3162C186.904 12.2293 186.954 12.1425 187.007 12.0573C187.53 11.2087 188.247 10.4653 189.082 9.90908C189.166 9.85395 189.251 9.8005 189.336 9.74871L189.413 9.70194C189.478 9.66352 189.541 9.62677 189.608 9.59169L189.625 9.58167C189.645 9.56998 189.667 9.55828 189.688 9.54826C189.777 9.50149 189.867 9.45472 189.959 9.41128C190.053 9.36618 190.144 9.32609 190.238 9.286C190.26 9.27765 190.281 9.26763 190.303 9.25927L190.323 9.25092C190.393 9.22253 190.463 9.19413 190.535 9.16907L190.555 9.16239C190.577 9.15404 190.599 9.14568 190.62 9.139C190.717 9.10392 190.814 9.07219 190.913 9.04212C191.013 9.01205 191.112 8.98365 191.213 8.9586C191.235 8.95358 191.257 8.94857 191.279 8.94189L191.302 8.93688C191.377 8.9185 191.452 8.9018 191.528 8.8851L191.581 8.8734C191.671 8.85503 191.822 8.82663 191.913 8.81327H191.93C191.93 8.81327 191.933 8.80993 191.935 8.80993H191.938C192.03 8.79656 192.132 8.7832 192.246 8.77151C192.269 8.76983 192.293 8.76649 192.316 8.76482H192.341C192.42 8.7548 192.498 8.74979 192.578 8.74478H192.597C192.622 8.74144 192.648 8.73977 192.673 8.73977C192.794 8.73476 192.901 8.73141 192.998 8.73141C193.094 8.73141 193.196 8.73476 193.318 8.73977L193.395 8.74311C193.607 8.7548 193.818 8.77652 194.023 8.80658L194.107 8.81995C194.307 8.85169 194.508 8.89178 194.703 8.94022L194.79 8.96194C194.902 8.99033 195 9.01873 195.091 9.04713L195.106 9.05214C195.197 9.08054 195.284 9.11061 195.37 9.14067C195.396 9.14903 195.421 9.15905 195.448 9.16907C195.528 9.19914 195.597 9.22587 195.667 9.25426L195.702 9.26763C195.816 9.3144 195.936 9.36785 196.056 9.42632L196.088 9.44135C196.148 9.47142 196.201 9.49815 196.255 9.52655L196.273 9.53657L196.285 9.54158C196.318 9.55828 196.35 9.57666 196.382 9.59336C196.5 9.66018 196.693 9.77377 196.808 9.84727L196.823 9.85562C196.945 9.93413 197.06 10.0143 197.17 10.0962L197.189 10.1095C197.212 10.1262 197.234 10.1429 197.257 10.1596C197.352 10.2315 197.446 10.3066 197.544 10.3902L197.6 10.4369C197.673 10.4987 197.745 10.5639 197.815 10.6307L197.833 10.6474C197.89 10.7009 197.945 10.7543 198 10.8094L198.042 10.8529C198.131 10.9431 198.209 11.0283 198.283 11.1118L198.294 11.1235L198.331 11.1669C198.378 11.222 198.425 11.2772 198.47 11.334L198.513 11.3891C198.567 11.4559 198.62 11.5244 198.67 11.5946L198.677 11.6046C198.719 11.6597 198.761 11.7165 198.797 11.775L198.872 11.8886C198.906 11.9387 198.938 11.9904 198.969 12.0422L199.1 12.256H199.098C199.359 12.7138 199.566 13.1948 199.713 13.691C199.901 14.3257 199.998 14.9822 199.998 15.642C199.998 16.0229 199.953 16.4706 199.885 16.8681C199.868 16.97 199.779 17.0435 199.676 17.0435H190.435C190.271 17.0435 190.171 17.2223 190.255 17.3643C190.823 18.3264 191.84 18.9261 192.962 18.9261C193.918 18.9261 194.808 18.5052 195.441 17.695C195.49 17.6332 195.568 17.6015 195.645 17.6148L199.183 18.2513C199.32 18.2763 199.397 18.4233 199.337 18.5486C199.257 18.714 199.156 18.9194 199.098 19.023H199.101L199.043 19.1216C198.988 19.2134 198.933 19.302 198.867 19.4039C198.786 19.5292 198.709 19.6377 198.635 19.738L198.59 19.7981H198.587C198.562 19.8298 198.537 19.8632 198.512 19.895L198.473 19.9434C198.425 20.0036 198.376 20.0604 198.33 20.1172L198.288 20.1656C198.209 20.2541 198.132 20.3376 198.047 20.4262L197.999 20.4746C197.944 20.5298 197.887 20.5849 197.83 20.6383L197.813 20.655C197.752 20.7135 197.688 20.7703 197.625 20.8254L197.554 20.8856L197.543 20.8939V20.8906ZM195.872 13.8881C195.709 12.9159 194.584 12.1575 193.153 12.1575C191.853 12.1575 190.619 12.9109 190.435 13.8847C190.41 14.015 190.512 14.1353 190.642 14.1353H195.664C195.794 14.1353 195.894 14.0167 195.872 13.8881Z" fill="#242424"/>
</g>
<defs>
<linearGradient id="paint0_linear_10671_908" x1="-1.01124e-08" y1="13.363" x2="26.727" y2="13.363" gradientUnits="userSpaceOnUse">
<stop stop-color="#79E0ED"/>
<stop offset="0.25" stop-color="#5176EA"/>
<stop offset="0.5" stop-color="#7E3CD9"/>
<stop offset="0.75" stop-color="#E93E46"/>
<stop offset="1" stop-color="#EEC277"/>
</linearGradient>
<clipPath id="clip0_10671_908">
<rect width="200" height="26.7271" fill="white"/>
</clipPath>
</defs>
</svg>
